<?xml version="1.0" encoding="iso-8859-1"?>
<!-- Generator: Adobe Illustrator 16.0.0, SVG Export Plug-In . SVG Version: 6.00 Build 0)  -->
<!DOCTYPE svg PUBLIC "-//W3C//DTD SVG 1.1//EN" "http://www.w3.org/Graphics/SVG/1.1/DTD/svg11.dtd">
<svg version="1.1" id="Capa_1" xmlns="http://www.w3.org/2000/svg" xmlns:xlink="http://www.w3.org/1999/xlink" x="0px" y="0px"
	 width="536.25px" height="536.25px" viewBox="0 0 536.25 536.25" style="enable-background:new 0 0 536.25 536.25;"
	 xml:space="preserve">
<g>
	<g>
		<path d="M441.602,200.66c-17.111,15.719-24.127,46.775-15.455,68.417c6.336,15.825,18.273,18.116,30.137,5.604
			c12.08-12.729,16.479-28.511,16.479-48.958c-0.695-7.201-1.779-12.723-4.971-19.993
			C462.229,193.033,451.729,191.346,441.602,200.66z"/>
		<path d="M483.242,109.16H52.993C23.724,109.16,0,132.885,0,162.154v160.018c0,29.271,23.725,53.002,52.993,53.002h203.254h0.836
			l92.729,51.916l-19.48-51.916h152.91c29.268,0,53.008-23.73,53.008-53.002V162.153C536.25,132.884,512.512,109.16,483.242,109.16z
			 M226.189,323.473c-0.217,8.604-1.688,16.616-10.376,20.317c-9.214,3.918-16.307-0.858-22.532-7.317
			c-21.603-22.394-34.41-49.731-44.274-78.723c-1.022-2.989-1.951-6.018-3.825-11.871c-10.02,20.311-18.366,38.531-27.921,56.104
			c-6.535,12.021-13.767,23.969-22.501,34.43c-11.228,13.465-23.384,11.604-28.2-5.211c-10.469-36.559-19.265-73.614-27.829-110.68
			c-4.212-18.189-6.582-36.826-9.431-55.309c-1.951-12.613,4.274-21.635,15.548-23.462c12.497-2.028,19.884,3.948,22.393,17.794
			c6.272,34.719,12.652,69.416,19.017,104.12c0.31,1.688,0.96,3.313,1.874,6.373c2.091-3.121,3.717-5.125,4.894-7.355
			c13.644-25.916,27.209-51.871,40.821-77.81c4.615-8.804,10.252-16.864,21.665-15.425c11.166,1.418,13.612,10.555,15.858,19.893
			c5.327,22.176,11.088,44.236,18.862,65.877c3.763-21.246,6.535-42.74,11.599-63.678c3.856-16.006,9.849-31.623,16.276-46.822
			c5.142-12.134,16.539-15.625,27.023-10.236c10.159,5.211,13.24,15.51,7.836,27.17c-16.137,34.898-20.612,72.482-24.716,110.014
			C226.391,288.807,226.607,306.188,226.189,323.473z M377.133,227.124c0.387,23.988-6.439,45.91-19.684,65.765
			c-15.053,22.568-37.756,32.324-61.666,26.99c-24.08-5.365-40.139-23.463-44.506-50.479c-4.692-29.004,0.65-56.089,16.276-81.03
			c16.603-26.457,39.876-37.119,65.849-30.32c25.193,6.588,42.354,29.934,43.717,59.559
			C377.271,220.775,377.133,223.951,377.133,227.124z M514.184,227.124c0.391,23.988-6.457,45.91-19.695,65.765
			c-15.055,22.568-37.74,32.324-61.65,26.99c-24.08-5.365-40.141-23.463-44.521-50.479c-4.68-29.004,0.666-56.089,16.291-81.03
			c16.604-26.457,39.877-37.119,65.848-30.32c25.182,6.588,42.354,29.934,43.719,59.559
			C514.309,220.775,514.184,223.951,514.184,227.124z"/>
		<path d="M307.521,200.66c-17.111,15.719-24.129,46.775-15.455,68.417c6.334,15.825,18.271,18.116,30.137,5.604
			c12.078-12.729,16.492-28.511,16.492-48.958c-0.713-7.201-1.797-12.723-4.986-19.993
			C328.148,193.033,317.648,191.346,307.521,200.66z"/>
	</g>
</g>
<g>
</g>
<g>
</g>
<g>
</g>
<g>
</g>
<g>
</g>
<g>
</g>
<g>
</g>
<g>
</g>
<g>
</g>
<g>
</g>
<g>
</g>
<g>
</g>
<g>
</g>
<g>
</g>
<g>
</g>
</svg>
